<?xml version="1.0" encoding="utf-8"?>
<!-- Generator: Adobe Illustrator 23.0.2, SVG Export Plug-In . SVG Version: 6.00 Build 0)  -->
<svg version="1.1" id="Camada_1" xmlns="http://www.w3.org/2000/svg" xmlns:xlink="http://www.w3.org/1999/xlink" x="0px" y="0px"
	 viewBox="0 0 150 150" style="enable-background:new 0 0 150 150;" xml:space="preserve">
<style type="text/css">
	.st0{fill:#020203;}
</style>
<path class="st0" d="M75.4,150c-20,0-38.9-7.8-53-22c-14.2-14.2-22-33-22-53s7.8-38.9,22-53c14.2-14.2,33-22,53-22s38.9,7.8,53,22
	c14.2,14.2,22,33,22,53s-7.8,38.9-22,53C114.3,142.2,95.5,150,75.4,150L75.4,150z M75.4,11.7c-34.9,0-63.3,28.4-63.3,63.3
	s28.4,63.3,63.3,63.3s63.3-28.4,63.3-63.3S110.3,11.7,75.4,11.7z M102.9,87.9c-2.7-1.7-6.4-0.9-8.1,1.8c-0.1,0.1-7.4,11.3-19.7,11.3
	S55.5,89.9,55.5,89.7c-1.7-2.7-5.4-3.5-8.1-1.8c-2.7,1.7-3.5,5.4-1.8,8.1c0.4,0.7,10.9,16.8,29.6,16.8s29.1-16.1,29.6-16.8
	C106.4,93.3,105.6,89.7,102.9,87.9L102.9,87.9z M49.6,48.3c4,0,7.3,3.3,7.3,7.3S53.7,63,49.6,63s-7.3-3.3-7.3-7.3
	S45.6,48.3,49.6,48.3z M93.6,55.7c0,4,3.3,7.3,7.3,7.3s7.3-3.3,7.3-7.3s-3.3-7.3-7.3-7.3S93.6,51.6,93.6,55.7z"/>
</svg>
