<?xml version="1.0" encoding="utf-8"?>
<!-- Generator: Adobe Illustrator 23.0.2, SVG Export Plug-In . SVG Version: 6.00 Build 0)  -->
<svg version="1.1" id="Camada_1" xmlns="http://www.w3.org/2000/svg" xmlns:xlink="http://www.w3.org/1999/xlink" x="0px" y="0px"
	 viewBox="0 0 150 150" style="enable-background:new 0 0 150 150;" xml:space="preserve">
<style type="text/css">
	.st0{fill:#020203;}
</style>
<g>
	<path class="st0" d="M136.8,32.1h-25.4l-3.3-16.8c-0.8-4.2-4.4-7.2-8.6-7.2h-49c-4.2,0-7.8,3-8.6,7.2l-3.3,16.8H13.2
		C5.9,32.1,0,38.1,0,45.6v78c0,7.4,5.9,13.5,13.2,13.5h123.6c7.3,0,13.2-6.1,13.2-13.5v-78C150,38.1,144.1,32.1,136.8,32.1z
		 M50.5,17h49l2.9,15H47.5L50.5,17z M141.2,123.6c0,2.5-2,4.5-4.4,4.5H13.2c-2.4,0-4.4-2-4.4-4.5v-78c0-2.5,2-4.5,4.4-4.5h123.6
		c2.4,0,4.4,2,4.4,4.5V123.6z"/>
	<path class="st0" d="M75,51.3c-17.9,0-32.5,14.9-32.5,33.3s14.6,33.3,32.5,33.3s32.5-14.9,32.5-33.3S92.9,51.3,75,51.3z M75,108.9
		c-13.1,0-23.7-10.9-23.7-24.3S61.9,60.3,75,60.3s23.7,10.9,23.7,24.3S88.1,108.9,75,108.9z"/>
	<path class="st0" d="M37.5,51.3H23.4c-2.4,0-4.4,2-4.4,4.5c0,2.5,2,4.5,4.4,4.5h14.1c2.4,0,4.4-2,4.4-4.5
		C41.9,53.3,39.9,51.3,37.5,51.3z"/>
</g>
</svg>
