<?xml version="1.0" encoding="utf-8"?>
<!-- Generator: Adobe Illustrator 23.0.2, SVG Export Plug-In . SVG Version: 6.00 Build 0)  -->
<svg version="1.1" id="Camada_1" xmlns:xodm="http://www.corel.com/coreldraw/odm/2003"
	 xmlns="http://www.w3.org/2000/svg" xmlns:xlink="http://www.w3.org/1999/xlink" x="0px" y="0px" viewBox="0 0 400.3 181"
	 style="enable-background:new 0 0 400.3 181;" xml:space="preserve">
<style type="text/css">
	.st0{fill-rule:evenodd;clip-rule:evenodd;fill:#FFFFFF;}
	.st1{opacity:0.5;fill-rule:evenodd;clip-rule:evenodd;fill:#FFFFFF;}
</style>
<path class="st0" d="M0,181C6.1,119.5,39.9,66.2,88.8,33.6l45.5,70.9C108.7,122,90.5,149.3,85,181L0,181L0,181z"/>
<path class="st1" d="M200.2,0c32,0,62.3,7.5,89.2,20.8l-41.3,73.7c-14.6-6.6-30.9-10.2-47.9-10.2c-17.1,0-33.3,3.7-47.9,10.2
	L111,20.8C137.8,7.5,168.1,0,200.2,0L200.2,0z"/>
<path class="st1" d="M311.5,33.6c48.9,32.5,82.7,85.9,88.8,147.4h-85c-5.5-31.7-23.8-59-49.3-76.4l0.5-1
	C266.6,103.6,311.5,33.6,311.5,33.6z"/>
</svg>
