<?xml version="1.0" encoding="utf-8"?>
<!-- Generator: Adobe Illustrator 23.0.2, SVG Export Plug-In . SVG Version: 6.00 Build 0)  -->
<svg version="1.1" id="Capa_1" xmlns="http://www.w3.org/2000/svg" xmlns:xlink="http://www.w3.org/1999/xlink" x="0px" y="0px"
	 viewBox="0 0 494.4 494.4" style="enable-background:new 0 0 494.4 494.4;" xml:space="preserve">
<style type="text/css">
	.st0{fill:#ADAFCA;}
</style>
<path class="st0" d="M247.2,0c-73.9,0-134.1,60.1-134.1,134.1v253.8c0,9.1,7.3,16.4,16.4,16.4c9.1,0,16.4-7.3,16.4-16.4V134.1
	c0-55.8,45.4-101.3,101.3-101.3c55.9,0,101.3,45.4,101.3,101.3v261.7c0,36.3-29.6,65.9-65.9,65.9c-0.3,0-0.5,0.1-0.8,0.2
	c-0.3,0-0.5-0.2-0.8-0.2c-36.3,0-65.9-29.6-65.9-65.9v-157c0-17.7,14.4-32.1,32.1-32.1c17.7,0,32.1,14.4,32.1,32.1v149.1
	c0,9.1,7.3,16.4,16.4,16.4c9,0,16.4-7.3,16.4-16.4V238.8c0-35.8-29.1-64.9-64.9-64.9c-35.8,0-64.9,29.1-64.9,64.9v157
	c0,54.4,44.3,98.7,98.7,98.7c0.3,0,0.5-0.1,0.8-0.2c0.3,0,0.5,0.2,0.8,0.2c54.4,0,98.7-44.3,98.7-98.7V134.1
	C381.3,60.1,321.1,0,247.2,0z"/>
</svg>
