<?xml version="1.0" encoding="utf-8"?>
<!-- Generator: Adobe Illustrator 23.0.2, SVG Export Plug-In . SVG Version: 6.00 Build 0)  -->
<svg version="1.1" id="Camada_1" xmlns="http://www.w3.org/2000/svg" xmlns:xlink="http://www.w3.org/1999/xlink" x="0px" y="0px"
	 viewBox="0 0 54.9 98.9" style="enable-background:new 0 0 54.9 98.9;" xml:space="preserve">
<g>
	<path d="M7.5,85.1c-2-0.6-2.8-1.9-2.8-3.9v-5.7c0-2,0.9-3.3,2.8-3.9l38.2-13c2.4-0.8,4,0.3,4,2.8v4.2c0,2-0.9,3.3-2.9,3.9l-6.5,1.9
		v14l6.5,1.9c2,0.6,2.9,1.8,2.9,3.8v4.2c0,2.5-1.6,3.7-4,2.8L7.5,85.1z M31.4,73.9l-8.8,2.5c-2.8,0.8-7.7,1.8-7.7,1.8v0.1
		c0,0,4.9,1,7.7,1.8l8.8,2.6V73.9z"/>
	<path d="M29.5,38.4v-0.9h-0.6c-2.7,0-3.6,2.2-3.6,4.6c0,2.1,0.7,4.2,1.4,5.9c0.9,2.1,0.5,3.7-1.5,4.7l-1.6,0.8
		c-2,0.9-3.7,0.6-4.7-1.4c-1.1-2.5-2.5-6.2-2.5-10.9c0-8.9,5-14.5,13.2-14.5h16.5c2.3,0,3.5,1.2,3.5,3.5v3c0,2.3-1.1,3.5-3.5,3.5
		h-0.3c-0.4,0-0.6-0.1-0.6-0.1v0.1c0,0,5.2,3.1,5.2,9.6c0,6.2-4.3,10.6-9.9,10.6C31.9,56.7,29.5,46.4,29.5,38.4z M42.3,42.9
		c0-3.1-3.1-5.5-5.7-5.5h-0.9v1c0,3.3,0.9,7.6,3.8,7.6C41.1,46,42.3,44.9,42.3,42.9z"/>
</g>
<rect x="25.7" y="-11.6" transform="matrix(6.123234e-17 -1 1 6.123234e-17 15.6301 38.7161)" width="3" height="46.2"/>
<rect width="4.6" height="23.1"/>
<rect x="50.3" width="4.6" height="23.1"/>
</svg>
