<?xml version="1.0" encoding="utf-8"?>
<!-- Generator: Adobe Illustrator 23.0.2, SVG Export Plug-In . SVG Version: 6.00 Build 0)  -->
<svg version="1.1" id="Camada_1" xmlns="http://www.w3.org/2000/svg" xmlns:xlink="http://www.w3.org/1999/xlink" x="0px" y="0px"
	 viewBox="0 0 521.1 570.3" style="enable-background:new 0 0 521.1 570.3;" xml:space="preserve">
<style type="text/css">
	.st0{fill-rule:evenodd;clip-rule:evenodd;fill:#CB3C38;}
	.st1{fill-rule:evenodd;clip-rule:evenodd;fill:#CB3C38;stroke:#CB3C38;stroke-width:31;stroke-miterlimit:10;}
	.st2{fill-rule:evenodd;clip-rule:evenodd;fill:#A0252B;}
	.st3{fill:#FFFFFF;}
	.st4{fill-rule:evenodd;clip-rule:evenodd;fill:#CB3C38;stroke:#CB3C38;stroke-width:28;stroke-miterlimit:10;}
</style>
<g>
	<path class="st0" d="M265.5,43.5l114.5,110.5l45.2-2.2l75.9-36.2l-13.3,178.9c0,0,31.7,226.4-11.3,238.9s-404.2,19.3-411,0
		S27.1,70,35.7,73.2S265.5,43.5,265.5,43.5z"/>
	<g>
		<path class="st1" d="M109.6,326.5c0.2,3.2,0.6,6.3,0.6,9.6c0,4.7-0.7,9.4-0.7,14.1c0,10.7,1.4,21.4,1.4,32.1
			c0,11.9-0.2,23.9-0.2,35.8c0,4.9,0.2,9.7,0.2,14.6c0,1.7-0.2,3.5-0.2,5.2c0,22.4,3.4,44.7,3.5,67.1c10.1-0.1,20-2.1,30.1-2.6h0.2
			c8.2,0,10.9,10.3,12,16.7c0.8,4.6,1.3,9.9,1.3,14.6c0,8.9-12.9,11.3-19.6,12.3c-5.3,0.8-11.2,1.3-16.6,1.3
			c-6.6,0-13.1,0.1-19.7-0.2c-5.5-0.2-11.4-0.5-16.8-1.6c-4.6-0.9-10.7-2.8-11.7-8.1c-2.6-14.5-4.1-28.8-4.1-43.5v-5
			c0-2.4-0.2-4.7-0.2-7.1c0-3.9,0.5-7.7,0.5-11.5c0-4.2-0.7-8.5-0.7-12.7c0-5.3,0.5-10.5,0.5-15.8c0-12.8-1.7-25.4-1.7-38.2
			c0-6.9,0.2-13.8,0.2-20.8c0-4.3-0.2-8.6-0.2-13c0-4.3,0.2-8.6,0.2-13v-17.7c0-8.5,0-17-0.7-25.5l0-0.2v-0.2c0-3.7-0.1-7.4,2-10.7
			c2.6-4.1,7.2-5.2,11.8-5.2c6.8,0,16.6-0.6,22.1,3.9c6.5,5.3,6.5,16.4,6.5,24C109.7,325.6,109.7,326.1,109.6,326.5L109.6,326.5z"/>
		<path class="st1" d="M157.3,347.9c0-4.8-0.5-9.6-0.5-14.5c0-4.2,0.2-8.4,0.7-12.5c0-5.4-0.5-10.8-0.5-16.2c0-2.5,0.6-4.9,2.4-6.8
			c2.4-2.5,5.9-2.8,9.2-2.8c3.7,0,7.4,0.7,11.1,0.7c2.9,0,6.1-0.8,9-1.1l0.3,0h0.3c1.6,0,3.2,0.4,4.6,1.2c6,3.3,6.8,12.3,7,18.4
			c0.1,2.6,0.1,5.2,0.2,7.8c0,1.6,0,3.5,0.2,5c1.8,11.8,1.7,24.3,1.6,36.2c0,7-0.1,14,0.1,21l0,0.1v0.1c0,6.6-0.5,13.2-0.5,19.8
			c0,2.4,0.5,4.8,0.5,7.3c0,14-1.6,28-1.6,42c0,4.1-0.1,8.2-0.2,12.4c-0.2,7.4-0.4,15.2,0.5,22.5c0.6,4.3,1.8,10.3,5.2,13.3
			c2.1,1.9,4.8,2.4,7.6,2.4c3.1,0,6.5-0.5,8.9-2.5c2.8-2.4,4-6.7,4.7-10.1c1.3-6.6,1.3-14.2,1.3-20.9c0-15.1-1.9-30.2-1.9-45.3
			c0-1.8,0.2-3.6,0.2-5.4c0-8.5-1.2-17-1.2-25.5c0-5.4,0.7-10.7,0.7-16c0-3.8-0.5-7.7-0.5-11.5c0-6.6,0.9-13.2,0.9-19.8
			c0-3.6-0.5-7.2-0.5-10.9c0-4.9-0.3-9.8-0.4-14.7c-0.1-7.4-0.5-25,10.4-25c4.8,0,9.7,1.4,14.6,1.4h3.8c3.8,0,7.4,1.1,10.1,3.8
			c6.7,6.7,4.7,19.8,5.1,28.6c0.7,17.7,1.9,35.5,1.9,53.3c0,2.7-0.2,5.5-0.2,8.2c0,4.6,0.5,9.3,0.5,13.9c0,9.1-0.7,18.1-0.7,27.1
			c0,6.2,0.5,12.4,0.5,18.6c0,8.7-1,17.4-0.7,26v3.2c0,12.9-0.4,33-6.5,44.2l-0.1,0.2l-0.1,0.2c-3.1,4.7-6.6,9-10.9,12.7
			c-13.1,11.5-30,14-46.9,14c-9.9,0-20.1-1.3-28.5-6.9c-11.5-7.7-16.3-21.3-19-34.3c-2-9.8-3-19.9-3.7-29.8
			c-0.9-13.5-1.1-27.1-1.1-40.7c0-5.4,0.5-10.8,0.5-16.3v-4.5c0-7.1-0.2-14.2-0.2-21.2C155.9,381.5,156.4,364.7,157.3,347.9
			L157.3,347.9z"/>
		<path class="st1" d="M319.4,326.5c0.2,3.2,0.6,6.3,0.6,9.6c0,4.7-0.7,9.4-0.7,14.1c0,10.7,1.4,21.4,1.4,32.1
			c0,11.9-0.2,23.9-0.2,35.8c0,4.9,0.2,9.7,0.2,14.6c0,1.7-0.2,3.5-0.2,5.2c0,22.4,3.4,44.7,3.5,67.1c10.1-0.1,20-2.1,30.1-2.6h0.2
			c8.2,0,10.9,10.3,12,16.7c0.8,4.6,1.3,9.9,1.3,14.6c0,8.9-12.9,11.3-19.6,12.3c-5.3,0.8-11.2,1.3-16.6,1.3
			c-6.6,0-13.1,0.1-19.7-0.2c-5.5-0.2-11.4-0.5-16.8-1.6c-4.6-0.9-10.7-2.8-11.7-8.1c-2.6-14.5-4.1-28.8-4.1-43.5v-5
			c0-2.4-0.2-4.7-0.2-7.1c0-3.9,0.5-7.7,0.5-11.5c0-4.2-0.7-8.5-0.7-12.7c0-5.3,0.5-10.5,0.5-15.8c0-12.8-1.7-25.4-1.7-38.2
			c0-6.9,0.2-13.8,0.2-20.8c0-4.3-0.2-8.6-0.2-13c0-4.3,0.2-8.6,0.2-13v-17.7c0-8.5,0-17-0.7-25.5l0-0.2v-0.2c0-3.7-0.1-7.4,2-10.7
			c2.6-4.1,7.2-5.2,11.8-5.2c6.8,0,16.6-0.6,22.1,3.9c6.5,5.3,6.5,16.4,6.5,24C319.5,325.6,319.5,326.1,319.4,326.5L319.4,326.5z"/>
		<path class="st1" d="M367.2,347.9c0-4.8-0.5-9.6-0.5-14.5c0-4.2,0.2-8.4,0.7-12.5c0-5.4-0.5-10.8-0.5-16.2c0-2.5,0.6-4.9,2.4-6.8
			c2.5-2.5,5.9-2.8,9.2-2.8c3.7,0,7.4,0.7,11.1,0.7c2.9,0,6.1-0.8,9-1.1l0.3,0h0.3c1.6,0,3.2,0.4,4.6,1.2c6,3.3,6.8,12.3,7.1,18.4
			c0.1,2.6,0.1,5.2,0.2,7.8c0,1.6,0,3.5,0.2,5c1.8,11.8,1.7,24.3,1.6,36.2c0,7-0.1,14,0.1,21v0.1c0,6.6-0.5,13.2-0.5,19.8
			c0,2.4,0.5,4.8,0.5,7.3c0,14-1.7,28-1.7,42c0,4.1-0.1,8.2-0.2,12.4c-0.2,7.4-0.4,15.2,0.5,22.5c0.6,4.3,1.8,10.3,5.2,13.3
			c2.1,1.9,4.8,2.4,7.6,2.4c3.1,0,6.5-0.5,8.9-2.5c2.8-2.4,4-6.7,4.7-10.1c1.3-6.6,1.4-14.2,1.4-20.9c0-15.1-1.9-30.2-1.9-45.3
			c0-1.8,0.2-3.6,0.2-5.4c0-8.5-1.2-17-1.2-25.5c0-5.4,0.7-10.7,0.7-16c0-3.8-0.5-7.7-0.5-11.5c0-6.6,0.9-13.2,0.9-19.8
			c0-3.6-0.5-7.2-0.5-10.9c0-4.9-0.3-9.8-0.4-14.7c-0.1-7.4-0.5-25,10.4-25c4.8,0,9.7,1.4,14.6,1.4h3.8c3.8,0,7.4,1.1,10.1,3.8
			c6.7,6.7,4.7,19.8,5.1,28.6c0.7,17.7,1.9,35.5,1.9,53.3c0,2.7-0.2,5.5-0.2,8.2c0,4.6,0.5,9.3,0.5,13.9c0,9.1-0.7,18.1-0.7,27.1
			c0,6.2,0.5,12.4,0.5,18.6c0,8.7-1,17.4-0.7,26v3.2c0,12.9-0.4,33-6.5,44.2l-0.1,0.2l-0.1,0.2c-3.1,4.7-6.6,9-10.9,12.7
			c-13.1,11.5-30,14-46.9,14c-9.9,0-20.1-1.3-28.5-6.9c-11.5-7.7-16.3-21.3-19-34.3c-2-9.8-3-19.9-3.7-29.8
			c-0.9-13.5-1.1-27.1-1.1-40.7c0-5.4,0.5-10.8,0.5-16.3v-4.5c0-7.1-0.2-14.2-0.2-21.2C365.7,381.5,366.2,364.7,367.2,347.9
			L367.2,347.9z"/>
	</g>
	<g>
		<path class="st2" d="M107.7,326.5c0.2,3.2,0.6,6.3,0.6,9.6c0,4.7-0.7,9.4-0.7,14.1c0,10.7,1.4,21.4,1.4,32.1
			c0,11.9-0.2,23.9-0.2,35.8c0,4.9,0.2,9.7,0.2,14.6c0,1.7-0.2,3.5-0.2,5.2c0,22.4,3.4,44.7,3.5,67.1c10.1-0.1,20-2.1,30.1-2.6h0.2
			c8.2,0,10.9,10.3,12,16.7c0.8,4.6,1.3,9.9,1.3,14.6c0,8.9-12.9,11.3-19.6,12.3c-5.3,0.8-11.2,1.3-16.6,1.3
			c-6.6,0-13.1,0.1-19.7-0.2c-5.5-0.2-11.4-0.5-16.8-1.6c-4.6-0.9-10.7-2.8-11.7-8.1c-2.6-14.5-4.1-28.8-4.1-43.5v-5
			c0-2.4-0.2-4.7-0.2-7.1c0-3.9,0.5-7.7,0.5-11.5c0-4.2-0.7-8.5-0.7-12.7c0-5.3,0.5-10.5,0.5-15.8c0-12.8-1.7-25.4-1.7-38.2
			c0-6.9,0.2-13.8,0.2-20.8c0-4.3-0.2-8.6-0.2-13c0-4.3,0.2-8.6,0.2-13v-17.7c0-8.5,0-17-0.7-25.5l0-0.2v-0.2c0-3.7-0.1-7.4,2-10.7
			c2.6-4.1,7.2-5.2,11.8-5.2c6.8,0,16.6-0.6,22.1,3.9c6.5,5.3,6.5,16.4,6.5,24C107.8,325.6,107.8,326.1,107.7,326.5L107.7,326.5z
			 M155.4,347.9c0-4.8-0.5-9.6-0.5-14.5c0-4.2,0.2-8.4,0.7-12.5c0-5.4-0.5-10.8-0.5-16.2c0-2.5,0.6-4.9,2.4-6.8
			c2.4-2.5,5.9-2.8,9.2-2.8c3.7,0,7.4,0.7,11.1,0.7c2.9,0,6.1-0.8,9-1.1l0.3,0h0.3c1.6,0,3.2,0.4,4.6,1.2c6,3.3,6.8,12.3,7,18.4
			c0.1,2.6,0.1,5.2,0.2,7.8c0,1.6,0,3.5,0.2,5c1.8,11.8,1.7,24.3,1.6,36.2c0,7-0.1,14,0.1,21l0,0.1v0.1c0,6.6-0.5,13.2-0.5,19.8
			c0,2.4,0.5,4.8,0.5,7.3c0,14-1.6,28-1.6,42c0,4.1-0.1,8.2-0.2,12.4c-0.2,7.4-0.4,15.2,0.5,22.5c0.6,4.3,1.8,10.3,5.2,13.3
			c2.1,1.9,4.8,2.4,7.6,2.4c3.1,0,6.5-0.5,8.9-2.5c2.8-2.4,4-6.7,4.7-10.1c1.3-6.6,1.3-14.2,1.3-20.9c0-15.1-1.9-30.2-1.9-45.3
			c0-1.8,0.2-3.6,0.2-5.4c0-8.5-1.2-17-1.2-25.5c0-5.4,0.7-10.7,0.7-16c0-3.8-0.5-7.7-0.5-11.5c0-6.6,0.9-13.2,0.9-19.8
			c0-3.6-0.5-7.2-0.5-10.9c0-4.9-0.3-9.8-0.4-14.7c-0.1-7.4-0.5-25,10.4-25c4.8,0,9.7,1.4,14.6,1.4h3.8c3.8,0,7.4,1.1,10.1,3.8
			c6.7,6.7,4.7,19.8,5.1,28.6c0.7,17.7,1.9,35.5,1.9,53.3c0,2.7-0.2,5.5-0.2,8.2c0,4.6,0.5,9.3,0.5,13.9c0,9.1-0.7,18.1-0.7,27.1
			c0,6.2,0.5,12.4,0.5,18.6c0,8.7-1,17.4-0.7,26v3.2c0,12.9-0.4,33-6.5,44.2l-0.1,0.2l-0.1,0.2c-3.1,4.7-6.6,9-10.9,12.7
			c-13.1,11.5-30,14-46.9,14c-9.9,0-20.1-1.3-28.5-6.9c-11.5-7.7-16.3-21.3-19-34.3c-2-9.8-3-19.9-3.7-29.8
			c-0.9-13.5-1.1-27.1-1.1-40.7c0-5.4,0.5-10.8,0.5-16.3v-4.5c0-7.1-0.2-14.2-0.2-21.2C154,381.5,154.5,364.7,155.4,347.9
			L155.4,347.9z M317.5,326.5c0.2,3.2,0.6,6.3,0.6,9.6c0,4.7-0.7,9.4-0.7,14.1c0,10.7,1.4,21.4,1.4,32.1c0,11.9-0.2,23.9-0.2,35.8
			c0,4.9,0.2,9.7,0.2,14.6c0,1.7-0.2,3.5-0.2,5.2c0,22.4,3.4,44.7,3.5,67.1c10.1-0.1,20-2.1,30.1-2.6h0.2c8.2,0,10.9,10.3,12,16.7
			c0.8,4.6,1.3,9.9,1.3,14.6c0,8.9-12.9,11.3-19.6,12.3c-5.3,0.8-11.2,1.3-16.6,1.3c-6.6,0-13.1,0.1-19.7-0.2
			c-5.5-0.2-11.4-0.5-16.8-1.6c-4.6-0.9-10.7-2.8-11.7-8.1c-2.6-14.5-4.1-28.8-4.1-43.5v-5c0-2.4-0.2-4.7-0.2-7.1
			c0-3.9,0.5-7.7,0.5-11.5c0-4.2-0.7-8.5-0.7-12.7c0-5.3,0.5-10.5,0.5-15.8c0-12.8-1.7-25.4-1.7-38.2c0-6.9,0.2-13.8,0.2-20.8
			c0-4.3-0.2-8.6-0.2-13c0-4.3,0.2-8.6,0.2-13v-17.7c0-8.5,0-17-0.7-25.5l0-0.2v-0.2c0-3.7-0.1-7.4,2-10.7c2.6-4.1,7.2-5.2,11.8-5.2
			c6.8,0,16.6-0.6,22.1,3.9c6.5,5.3,6.5,16.4,6.5,24C317.6,325.6,317.6,326.1,317.5,326.5L317.5,326.5z M365.3,347.9
			c0-4.8-0.5-9.6-0.5-14.5c0-4.2,0.2-8.4,0.7-12.5c0-5.4-0.5-10.8-0.5-16.2c0-2.5,0.6-4.9,2.4-6.8c2.5-2.5,5.9-2.8,9.2-2.8
			c3.7,0,7.4,0.7,11.1,0.7c2.9,0,6.1-0.8,9-1.1l0.3,0h0.3c1.6,0,3.2,0.4,4.6,1.2c6,3.3,6.8,12.3,7.1,18.4c0.1,2.6,0.1,5.2,0.2,7.8
			c0,1.6,0,3.5,0.2,5c1.8,11.8,1.7,24.3,1.6,36.2c0,7-0.1,14,0.1,21v0.1c0,6.6-0.5,13.2-0.5,19.8c0,2.4,0.5,4.8,0.5,7.3
			c0,14-1.7,28-1.7,42c0,4.1-0.1,8.2-0.2,12.4c-0.2,7.4-0.4,15.2,0.5,22.5c0.6,4.3,1.8,10.3,5.2,13.3c2.1,1.9,4.8,2.4,7.6,2.4
			c3.1,0,6.5-0.5,8.9-2.5c2.8-2.4,4-6.7,4.7-10.1c1.3-6.6,1.4-14.2,1.4-20.9c0-15.1-1.9-30.2-1.9-45.3c0-1.8,0.2-3.6,0.2-5.4
			c0-8.5-1.2-17-1.2-25.5c0-5.4,0.7-10.7,0.7-16c0-3.8-0.5-7.7-0.5-11.5c0-6.6,0.9-13.2,0.9-19.8c0-3.6-0.5-7.2-0.5-10.9
			c0-4.9-0.3-9.8-0.4-14.7c-0.1-7.4-0.5-25,10.4-25c4.8,0,9.7,1.4,14.6,1.4h3.8c3.8,0,7.4,1.1,10.1,3.8c6.7,6.7,4.7,19.8,5.1,28.6
			c0.7,17.7,1.9,35.5,1.9,53.3c0,2.7-0.2,5.5-0.2,8.2c0,4.6,0.5,9.3,0.5,13.9c0,9.1-0.7,18.1-0.7,27.1c0,6.2,0.5,12.4,0.5,18.6
			c0,8.7-1,17.4-0.7,26v3.2c0,12.9-0.4,33-6.5,44.2l-0.1,0.2l-0.1,0.2c-3.1,4.7-6.6,9-10.9,12.7c-13.1,11.5-30,14-46.9,14
			c-9.9,0-20.1-1.3-28.5-6.9c-11.5-7.7-16.3-21.3-19-34.3c-2-9.8-3-19.9-3.7-29.8c-0.9-13.5-1.1-27.1-1.1-40.7
			c0-5.4,0.5-10.8,0.5-16.3v-4.5c0-7.1-0.2-14.2-0.2-21.2C363.9,381.5,364.3,364.7,365.3,347.9L365.3,347.9z M15.9,401.2"/>
		<path class="st3" d="M102.8,325.4c0.2,0,0.2,0,0.2-0.2c0-23.3-4.7-23.1-23.8-23.1c-9.2,0-9,5.2-9,11.1c0.7,8.7,0.7,17.4,0.7,25.9
			v17.7c0,4.5-0.2,8.5-0.2,13c0,4.5,0.2,8.7,0.2,13c0,6.8-0.2,13.9-0.2,20.7c0,12.7,1.7,25.5,1.7,38.2c0,5.2-0.5,10.6-0.5,15.8
			c0,4.2,0.7,8.5,0.7,12.7c0,3.8-0.5,7.8-0.5,11.5c0,2.4,0.2,4.7,0.2,7.1v5c0,14.9,1.4,28.3,4,42.7c1.2,6.6,31.6,5.9,43.4,5.9
			c4.5,0,31.4-0.9,31.4-8.7c0-1.4-0.5-26.4-8.5-26.4c-9.9,0.5-20.3,2.6-30.6,2.6c-2.6,0-4.2-0.9-4.5-3.1c0-22.6-3.5-46-3.5-68.9
			c0-1.9,0.2-3.5,0.2-5.2c0-4.7-0.2-9.7-0.2-14.6c0-12.3,0.2-23.8,0.2-35.9c0-10.6-1.4-21.4-1.4-32.1c0-4.7,0.7-9.4,0.7-14.1
			C103.5,332.5,103,328.9,102.8,325.4L102.8,325.4z M159.1,419.5v4.5c0,5.4-0.5,10.9-0.5,16.3c0,87,10.1,106.8,47.4,106.8
			c29.9,0,43.2-8.7,53.8-24.5c5.2-9.7,5.9-27.8,5.9-42v-3.1c-0.2-8.5,0.7-17.7,0.7-26.2c0-6.1-0.5-12.3-0.5-18.6
			c0-9,0.7-17.9,0.7-27.1c0-4.5-0.5-9.2-0.5-13.9c0-2.8,0.2-5.7,0.2-8.3c0-17.4-1.2-35.4-1.9-53.1c-0.5-11.3,2.6-27.8-10.4-27.8
			h-3.8c-5,0-11.3-1.4-14.6-1.4c-7.8,0-5.2,24.1-5.2,34.9c0,3.5,0.5,7.3,0.5,10.8c0,6.6-0.9,13.2-0.9,19.8c0,3.8,0.5,7.8,0.5,11.6
			c0,5.4-0.7,10.8-0.7,16c0,8.5,1.2,16.7,1.2,25.5c0,1.6-0.2,3.5-0.2,5.4c0,13.7,1.9,29.5,1.9,45.3c0,25.2-2.6,38.4-19.8,38.4
			c-22.4,0-17.9-30.7-17.9-55.4c0-13.4,1.7-27.8,1.7-42c0-2.4-0.5-5-0.5-7.3c0-6.4,0.5-13.2,0.5-19.8c-0.5-18.6,0.9-39.8-1.7-56.6
			c-0.9-6.6,1.7-28.3-7.3-28.3c-3.5,0.5-6.6,1.2-9.7,1.2c-3.5,0-7.3-0.7-11.1-0.7c-4.7,0-6.8,0.7-6.8,4.7c0,5.4,0.5,11.1,0.5,16.5
			c-0.5,4-0.7,8-0.7,12.3c0,4.7,0.5,9.4,0.5,14.6c-0.9,16.7-1.4,33.5-1.4,50.2C158.9,405.3,159.1,412.4,159.1,419.5L159.1,419.5z
			 M312.6,325.4c0.2,0,0.2,0,0.2-0.2c0-23.3-4.7-23.1-23.8-23.1c-9.2,0-9,5.2-9,11.1c0.7,8.7,0.7,17.4,0.7,25.9v17.7
			c0,4.5-0.2,8.5-0.2,13c0,4.5,0.2,8.7,0.2,13c0,6.8-0.2,13.9-0.2,20.7c0,12.7,1.7,25.5,1.7,38.2c0,5.2-0.5,10.6-0.5,15.8
			c0,4.2,0.7,8.5,0.7,12.7c0,3.8-0.5,7.8-0.5,11.5c0,2.4,0.2,4.7,0.2,7.1v5c0,14.9,1.4,28.3,4,42.7c1.2,6.6,31.6,5.9,43.4,5.9
			c4.5,0,31.4-0.9,31.4-8.7c0-1.4-0.5-26.4-8.5-26.4c-9.9,0.5-20.3,2.6-30.6,2.6c-2.6,0-4.2-0.9-4.5-3.1c0-22.6-3.5-46-3.5-68.9
			c0-1.9,0.2-3.5,0.2-5.2c0-4.7-0.2-9.7-0.2-14.6c0-12.3,0.2-23.8,0.2-35.9c0-10.6-1.4-21.4-1.4-32.1c0-4.7,0.7-9.4,0.7-14.1
			C313.3,332.5,312.8,328.9,312.6,325.4L312.6,325.4z M368.9,419.5v4.5c0,5.4-0.5,10.9-0.5,16.3c0,87,10.1,106.8,47.4,106.8
			c29.9,0,43.2-8.7,53.8-24.5c5.2-9.7,5.9-27.8,5.9-42v-3.1c-0.2-8.5,0.7-17.7,0.7-26.2c0-6.1-0.5-12.3-0.5-18.6
			c0-9,0.7-17.9,0.7-27.1c0-4.5-0.5-9.2-0.5-13.9c0-2.8,0.2-5.7,0.2-8.3c0-17.4-1.2-35.4-1.9-53.1c-0.5-11.3,2.6-27.8-10.4-27.8
			h-3.8c-5,0-11.3-1.4-14.6-1.4c-7.8,0-5.2,24.1-5.2,34.9c0,3.5,0.5,7.3,0.5,10.8c0,6.6-0.9,13.2-0.9,19.8c0,3.8,0.5,7.8,0.5,11.6
			c0,5.4-0.7,10.8-0.7,16c0,8.5,1.2,16.7,1.2,25.5c0,1.6-0.2,3.5-0.2,5.4c0,13.7,1.9,29.5,1.9,45.3c0,25.2-2.6,38.4-19.8,38.4
			c-22.4,0-17.9-30.7-17.9-55.4c0-13.4,1.6-27.8,1.6-42c0-2.4-0.5-5-0.5-7.3c0-6.4,0.5-13.2,0.5-19.8c-0.5-18.6,0.9-39.8-1.6-56.6
			c-0.9-6.6,1.6-28.3-7.3-28.3c-3.5,0.5-6.6,1.2-9.7,1.2c-3.5,0-7.3-0.7-11.1-0.7c-4.7,0-6.8,0.7-6.8,4.7c0,5.4,0.5,11.1,0.5,16.5
			c-0.5,4-0.7,8-0.7,12.3c0,4.7,0.5,9.4,0.5,14.6c-0.9,16.7-1.4,33.5-1.4,50.2C368.7,405.3,368.9,412.4,368.9,419.5L368.9,419.5z
			 M368.9,419.5"/>
	</g>
</g>
<path class="st4" d="M383.4,207c-0.7-24.8-1.4-49.6-2.1-74.4v-0.1c0-23.6,1.6-47.2,3.1-70.8v-0.1l0-0.1c1.2-12.3,4.1-26.3,14.4-34.4
	c7.9-6.2,18.2-7.5,27.9-7.5c12.7,0,36.6,0.6,46.6,8.6c9,7.2,19.2,12.9,22.4,24.9c5,18.7,4.4,38.7,4.4,57.8c0,10.1-1.2,20.1-1.2,30.2
	c0,3.2,0.2,6.4,0.2,9.7c0,31.4,1.3,63.2-1.7,94.6c-0.1,6-2.9,13.3-10,13.3c-3,0-6.1,0.2-9.1,0.3c-7.4,0.4-20.1,1.5-25.1-5.2
	c-1.4-1.9-2-4-2-6.3c0-4.2,0.2-8.5,0.2-12.7c0-3.7,0.2-7.4,0.2-11.2c0.1-4,0.1-8.3-0.5-12.3c-0.1-0.9-0.8-4.2-1.6-4.7
	c-0.1,0-0.1,0-0.2,0c-7.9,0-15.7,0.2-23.6,0.2c-0.6,0-1.2-0.1-1.7-0.2c-0.1,1.3-0.1,3.5-0.1,4.3c0,6.6,0.3,13.3,0.8,19.8
	c0.7,9.1,1.8,18.5,3.8,27.4l0.1,0.5v2.4c0,1.4-0.3,2.8-0.9,4c-4.2,8.4-20.6,7.4-28.7,8.1l-0.2,0h-0.2c-3.4,0-6.9,0-9.7-2.1
	c-3.7-2.7-4.3-7.5-4.3-11.8C383.7,242,383.4,224.5,383.4,207L383.4,207z"/>
<g>
	<path class="st0" d="M489.5,247.5c-2.8,1.4-7.5-9.3-11.1-9.3c-2.8,0-4.3,4.6-7.1,4.7c-12.6,0.7-18.8,32.5-27.2,21.1
		c-0.6-0.8-1.1-1.6-1.6-2.5v2.4c0,3.4-0.8,6.7-2.3,9.7c-0.7,1.3-1.5,2.6-2.4,3.7c-9,11.3-23.9,10.3-36.6,11.3l-0.7,0.1h-0.7
		c-6.3,0-11.8-0.6-17.2-4.5c0,0,0,0,0,0c-6.3,9.1-18.4,11.1-28.7,12.2c-5.7,0.6-11.4,0.8-17.1,0.8c-10.1,0-16.8-7-21.3-15.3
		c-2.7-5.1-4.7-10.6-6.6-16c-1.4-4-2.6-8-3.7-12.1c-0.4,1.2-0.8,2.5-1.2,3.7c-1.9,5.9-4,11.7-6.8,17.2c-4.5,8.6-11.5,15.8-22,15.8
		c-12.3,0-26.4-1.1-34-12.4c-0.1-0.2-0.2-0.3-0.3-0.5c-2.5,1.9-5.3,3.5-8.5,5c-16.8,7.6-30.4,11-48.9,11c-13.8,0-27.3-2.6-38.2-11.6
		c-11.6-9.5-16.9-23.3-20.1-37.5c-1.8-8-3-16.1-4-24.3c-1.2-9.8-2.1-19.5-2.9-29.3c-0.1-0.8-0.2-1.7-0.3-2.5
		c-6.3,5.7-14.3,9.7-24.4,11.3l-1,0.1l-1,0.1c-5.3,0.2-10.7,0.2-16,0.5l-0.4,0H75c-0.9,0-1.7-0.1-2.5-0.2c-0.2,0-0.5,0-0.7,0
		c0.4,19.7,1.9,39.3,2.5,59l0,0.3v0.3c0,5.7-1.7,11.1-5,15.7c-5.4,7.5-13.9,11-22.7,12.7c-3.3,0.6-6.7,1-10,1.2
		c-1.6,0.1-3.3,0.1-4.9,0.3l-1,0.1h-1c-9.6,0-16.3-6.6-19.6-15.1c-1.7-4.4-2.7-9.2-3.5-13.8c-1.9-11.1-2.8-22.4-3.6-33.6
		c-0.6-8.7-1-17.5-1.4-26.3c-0.3-5.8-0.5-11.6-0.8-17.5l0-0.5v-4.7c0-6.5,0.2-13.1,0.2-19.6c0-6-0.7-12.1-0.7-18.2
		c0-7,0.2-14,0.2-21v-8.3c0-20.9,1.4-41.8,1.9-62.7c0-3.7-0.5-7.4-0.5-11.1c0-18.7,21.5-24.5,36.3-26.6c5.3-0.8,10.7-1.2,16-1.2
		h13.7c5.1,0,10.2-0.2,15.3-0.2c15,0,28.7,4.9,39.1,15.8c1.9,2,3.7,4.2,5.3,6.5c0-0.1,0.1-0.1,0.1-0.2
		c11.9-17.1,31.1-22.8,51.2-22.8h0.9c6.9,0,13.8-1.2,20.8-1.2c12.4,0,24.3,3.1,34,11.1c4.6,3.8,8.2,8.4,11.1,13.4
		c0.3-2.5,1-4.9,2.2-7.1c4.9-8.7,14.8-11.4,23.9-13c4.5-0.8,9.1-1.3,13.6-1.3c13.3,0,21.1,10.7,26,21.6c3.1,6.9,5.4,14.2,7.6,21.5
		c1-4,2.1-8.1,3.4-12c4.2-13.2,11.5-30.2,27.9-30.2c6.3,0,12.6-0.2,18.9-0.2c8.5,0,16.3,4,20.4,10.7c0.8-0.8,1.7-1.5,2.6-2.2
		c10.3-8.1,23-10.2,35.7-10.2c16.4,0,43.7-0.1,56.8,10.4c4.2,3.3,5.2,4,8.8,7.1c0.4-0.9,0.1,4.2,0.6,3.2"/>
	<path class="st2" d="M128.4,74.2c0.6-12.4,2.6-25.4,9.5-35.4c9.4-13.6,25.1-17.4,40.8-17.4h0.9c6.9,0,13.8-1.2,20.8-1.2
		c9.4,0,18.5,2.1,25.9,8.2c10.7,8.9,14.6,23.9,16.7,37.1c1.4,8.8,2.1,17.8,2.6,26.6c0.6,10.5,1,21,1.5,31.5l0.2,5h-0.5
		c-0.1,13.2-0.5,26.3-0.5,39.5c0,14.5,1.2,28.9,1.2,43.4c0,21,2.7,49.1-20.3,59.6c-15.2,6.9-26.7,9.9-43.7,9.9
		c-10.7,0-21.7-1.7-30.2-8.7c-9.2-7.5-13.3-19.3-15.8-30.5c-1.7-7.6-2.8-15.3-3.7-23c-1.2-9.6-2-19.3-2.9-28.9
		c-0.8-9.1-3.5-17.3-3.3-26.7c0-14.3,1.2-28.6,1.2-42.9c0-1.8,0-3.5,0-5.3c-0.3,27-4.9,67.1-37,72.3l-0.3,0l-0.3,0
		c-5.3,0.2-10.7,0.2-16,0.5l-0.1,0H75c-0.8,0-1.5-0.2-2.3-0.2c-2,0.2-4.1,0.2-6.2,0.3c-1.4,0.1-6.5,0.3-7.5,1.4c0,0-0.1,0.2-0.1,0.3
		c0,23.4,1.9,46.8,2.6,70.2l0,0.1v0.1c0,3-0.8,5.8-2.6,8.2c-3.4,4.7-9.3,6.7-14.8,7.7c-2.8,0.5-5.7,0.8-8.6,1
		c-1.8,0.1-3.8,0.2-5.6,0.4l-0.3,0h-0.3c-4.2,0-6.5-3.6-7.8-7c-1.4-3.5-2.2-7.7-2.9-11.4c-1.8-10.6-2.7-21.6-3.4-32.4
		c-0.6-8.6-1-17.3-1.4-26c-0.3-5.9-0.5-11.8-0.8-17.6l0-0.1v-4.4c0-6.5,0.2-13,0.2-19.6c0-6.1-0.7-12.1-0.7-18.2c0-7,0.2-14,0.2-21
		v-8.2c0-20.9,1.4-41.7,1.9-62.5c0-3.8-0.5-7.5-0.5-11.3c0-10,18.1-13.1,25.5-14.1c4.7-0.7,9.5-1.1,14.2-1.1h13.7
		c5.1,0,10.2-0.2,15.3-0.2c11.5,0,21.9,3.5,30,11.9c8.4,8.8,12.5,21.2,14.4,33C127.8,69.4,128.1,71.8,128.4,74.2L128.4,74.2z
		 M306.2,203.8c-0.1,0.1-0.1,0.3-0.1,0.4c-1.7,4.6-3,9.5-4.2,14.3c-1.7,6.7-3.1,13.7-5.1,20.3c-1.5,5-2.9,10-4.6,15
		c-1.7,5.1-3.5,10.5-6,15.2c-2.2,4.1-5.6,9.1-10.8,9.1c-7.3,0-18.9,0-23.5-6.8c-1.3-1.9-1.8-4-1.8-6.3c0-10.1,5-20.4,7.7-30.1
		c2.8-14.3,7.5-28.2,13-41.7c4.5-11.3,9.8-22.3,14.1-33.7c1-2.5,2.2-4.9,3.4-7.3c0.8-1.6,3.5-7,3.6-8.6c0-2-1.1-5.7-1.6-7.6
		c-1.2-4.2-2.6-8.4-4-12.5c-1.5-4.4-3.1-8.7-4.7-13.1c-1-2.9-2.2-5.8-3.1-8.7c-5.9-18.8-11.6-37.7-17.4-56.6
		c-1.1-3.6-2.8-7-2.8-10.9c0-6.9,10.5-8.7,15.7-9.6c3.6-0.6,7.8-1.1,11.5-1.1c7.3,0,11.8,8.4,14.4,14.2c3.6,8.1,6.2,17.2,8.6,25.7
		c2.1,7.7,4.1,15.6,6.3,23.3c0.4,1.4,1.4,5,2.5,7.9c4.6-8.9,11.9-29.6,13.3-34.6c1.1-4.8,2.4-9.5,3.9-14.1c2.2-6.9,7-21.4,15.9-21.4
		c6.3,0,12.6-0.2,18.9-0.2c5.5,0,11,3.2,11,9.3c0,7-3.8,17.4-6.5,24c-12.2,29.6-24.3,59.2-36.8,88.7l-0.1,0.1l-0.1,0.1
		c-0.3,0.7-0.4,1.4-0.4,2.1c0,4.9,3.1,12.2,5,16.6c2.4,5.6,5.4,11.5,7.3,17.3c5.3,16.6,9.9,33.4,13.6,50.4
		c1.2,5.6,3.6,11.3,5.6,16.7c2.7,7.1,6.1,15.8,6.1,23.5c0,8.8-14.5,10.2-20.8,10.9c-5.2,0.5-10.6,0.8-15.8,0.8
		c-4.9,0-8.1-4.7-10.1-8.6c-2.3-4.4-4.2-9.4-5.7-14.1c-1.3-3.9-2.5-7.9-3.7-11.9c-0.8-2.6-1.5-5.3-2.3-7.9c-2.2-7.2-3.6-14.6-5-22
		C309,214.7,307.8,209.1,306.2,203.8L306.2,203.8z M384.4,209.8c-0.7-24.8-1.4-49.6-2.1-74.4v-0.1c0-23.6,1.6-47.2,3.1-70.8v-0.1
		l0-0.1c1.2-12.3,4.1-26.3,14.4-34.4c7.9-6.2,18.2-7.5,27.9-7.5c12.7,0,36.6,0.6,46.6,8.6c9,7.2,19.2,12.9,22.4,24.9
		c5,18.7,4.4,38.7,4.4,57.8c0,10.1-1.2,20.1-1.2,30.2c0,3.2,0.2,6.4,0.2,9.7c0,31.4,1.3,63.2-1.7,94.6c-0.1,6-2.9,13.3-10,13.3
		c-3,0-6.1,0.2-9.1,0.3c-7.4,0.4-20.1,1.5-25.1-5.2c-1.4-1.9-2-4-2-6.3c0-4.2,0.2-8.5,0.2-12.7c0-3.7,0.2-7.4,0.2-11.2
		c0.1-4,0.1-8.3-0.5-12.3c-0.1-0.9-0.8-4.2-1.6-4.7c-0.1,0-0.1,0-0.2,0c-7.9,0-15.7,0.2-23.6,0.2c-0.6,0-1.2-0.1-1.7-0.2
		c-0.1,1.3-0.1,3.5-0.1,4.3c0,6.6,0.3,13.3,0.8,19.8c0.7,9.1,1.8,18.5,3.8,27.4l0.1,0.5v2.4c0,1.4-0.3,2.8-0.9,4
		c-4.2,8.4-20.6,7.4-28.7,8.1l-0.2,0h-0.2c-3.4,0-6.9,0-9.7-2.1c-3.7-2.7-4.3-7.5-4.3-11.8C384.7,244.7,384.4,227.2,384.4,209.8
		L384.4,209.8z M55,90.5c0.3,6.5,0.3,13.1,0.4,19.6c0.1,8.2,0.3,16.7,1.1,24.9c0.2,2.1,1.1,9.5,2.4,11.9c7,0,16.7-0.6,22.1-5.1
		c4.1-3.5,5.1-9,5.1-14.1c0-9.4,0.2-18.7-0.3-28c-0.3-6.4-1.7-34.8-11.6-34.8c-5.3,0-10.4,1.1-15.6,1.8c-0.8,0.1-1.6,0.3-2.2,1
		C54.4,70,55.1,79,55.2,82.1c0,1.2,0.1,2.4,0.1,3.6v4.8H55z M203.5,169.5c-0.9-27.9-2.3-55.8-3.6-83.8c-0.3-3.3-0.6-6.6-1.1-9.9
		c-0.6-3.8-2.1-11.1-5.7-13.4c-0.9-0.6-1.8-0.8-2.8-0.8c-4.4,0-11.5,0.4-14.2,4.7c-1.6,2.6-1.8,6.6-1.9,9.6c-0.2,5,0,9.9-0.5,14.9
		c-0.4,4.9-0.9,9.7-0.9,14.6c0,19.2-0.6,39.5,2.3,58.5l0.1,0.4v1.8c0,1.6-0.2,3.1-0.4,4.6c-0.5,2.6-1.2,5.3-1.2,7.9
		c0,7.1-0.4,14.2-0.5,21.2c-0.1,7.7-0.3,27,6.7,32.1c1.5,1.1,3.2,1.5,5,1.5c15.4,0,19.7-7.1,19.7-21.8c0-12.4-0.7-24.8-0.9-37.2
		l-0.1-4.9H203.5z M454.7,133.1c-0.8-3.8-0.5-9.1-0.4-12.9c0.1-2.2,0.1-4.3,0.1-6.5c0-7.6-0.2-15.2-0.9-22.8
		c-0.5-5.8-1.2-12.1-2.7-17.8c-0.4-1.4-2-6.8-3.4-7.5c-3.1-1-6.8-1.9-10-1.9c-1.3,0-2.6,0.2-3.7,0.9c-4.2,2.6-5.9,10.6-6.6,15.1
		c-1.5,9.4-1.4,19.6-1.4,29.1c0,2.7,0,5.4,0,8v8.7c0,13.8-0.7,27.6-0.7,41.4c5-0.2,9.9-1.4,15-1.4h1.9c1.5,0,9.6,0.4,10.7-0.3
		C455,163.7,454.7,138,454.7,133.1L454.7,133.1z M454.7,133.1"/>
	<path class="st3" d="M67.7,27.2H54c-13,0-34.9,3.8-34.9,10.4c0,3.8,0.5,7.5,0.5,11.3c-0.5,20.3-1.9,41.3-1.9,62.5v8.2
		c0,7.1-0.2,13.9-0.2,21c0,6.1,0.7,12,0.7,18.2c0,6.6-0.2,13-0.2,19.6v4.2c0.9,16.5,2.6,89.8,11.5,89.8c5.9-0.7,27.4,0.2,27.4-12.5
		c-0.7-23.3-2.6-47.2-2.6-70.5c0.5-7.3,11.3-5.9,18.4-6.6c0.7,0,1.7,0.2,2.4,0.2c5.4-0.2,10.6-0.2,16-0.5c29.2-4.7,33-43.6,33-70.7
		c0-17.2,7.5-84.9-41-84.9C78,26.9,72.6,27.2,67.7,27.2L67.7,27.2z M50.5,85.7c0-10.6-2.4-22.4,7.5-23.8c5.4-0.7,10.4-1.9,16.3-1.9
		C92.7,60,91,105.5,91,127.6c0,21-15.3,24.1-33,24.1c-9,0-6.6-41.7-8-66H50.5z M242.1,123.9h0.2c-2.6-60.1-2.8-98.8-42-98.8
		c-6.8,0-13.9,1.2-20.8,1.2h-0.9c-47.9,0-45.7,37.5-45.7,69.6c0.5,8.2,0.7,16.3,0.7,24.5c0,14.2-1.2,28.8-1.2,42.9
		c-0.2,9.2,2.3,17,3.3,26.2c5.4,62.2,9.2,86.8,47.9,86.8c18.2,0,28.8-3.5,41.7-9.4c19.8-9,17.4-33.7,17.4-55.2
		c0-14.4-1.2-29-1.2-43.4C241.7,153.3,242.1,138.7,242.1,123.9L242.1,123.9z M208.2,174.3c0.2,12.5,0.9,24.8,0.9,37.3
		c0,17.9-6.8,26.6-24.5,26.6c-21,0-16-37-16-59.7c0-4.5,1.7-8.2,1.7-12.5v-1.4c-2.8-18.6-2.4-40.1-2.4-59.2c0-5.2,0.5-9.9,0.9-15.1
		c1.9-16.5-4.7-33.5,21.5-33.5c11.8,0,13.4,17.2,14.4,28.5c1.4,29.5,2.8,59.2,3.8,88.9H208.2z M307.2,193.2
		c6.8,14.2,7.8,32.3,12.5,47.4c2.1,7.1,10.1,39.1,17.2,39.1c6.8,0,31.8-0.7,31.8-6.8c0-11.3-9-27.1-11.5-39.1
		c-3.5-16.5-8-32.8-13.4-50c-3.1-9.2-12.5-25.5-12.5-35.4c0-1.4,0.2-2.8,0.9-4.2c12-28.3,24.3-58,36.8-88.7
		c2.6-6.1,6.1-16.3,6.1-22.2c0-3.1-3.1-4.5-6.1-4.5c-6.4,0-12.5,0.2-18.9,0.2c-6.8,0-12.5,21-15.1,31.8
		c-0.2,1.2-13.4,41.5-18.4,41.5c-7.1,0-16.5-74.3-31.4-74.3c-5.4,0-22.4,2.1-22.4,5.9c0,2.8,1.6,6.4,2.6,9.4
		c5.9,18.9,11.5,37.7,17.4,56.6c1.9,5.9,13.7,35.6,13.7,43.4c0,3.8-5.2,12-7.3,17.7c-7.5,19.6-21.2,45.5-26.9,74.7
		c-2.4,8.7-7.5,20-7.5,29c0,7.3,9.4,8.3,20.5,8.3c6.8,0,13-23.3,16.7-35.8C295.9,225.3,300.6,196.5,307.2,193.2L307.2,193.2z
		 M389.2,209.7c0,17.4,0.2,34.9,1.4,52.4c0,9,2.8,9.2,9.2,9.2c8.7-0.7,25.2,0,25.2-7.3V262c-3.1-13.7-4.7-32.8-4.7-48.3
		c0-5.4-0.2-8.7,4.2-9.2c0.7,0,1.7,0.2,2.4,0.2c7.8,0,15.8-0.2,23.6-0.2c9.2,0,6.8,20,6.8,33c0,4.2-0.2,8.5-0.2,12.7
		c0,9.9,18.4,6.4,31.4,6.4c4,0,5.2-5.4,5.2-8.7c2.8-30.2,1.6-63.2,1.6-94.3c0-3.3-0.2-6.4-0.2-9.7c0-10.1,1.2-20.8,1.2-30.2
		c0-19.8,0.5-38.9-4.2-56.6c-2.8-10.4-12.7-16-20.7-22.4c-8.3-6.6-29.7-7.5-43.6-7.5c-24.1,0-34.7,8.7-37.5,37.5
		c-1.4,23.3-3.1,46.7-3.1,70.5C387.8,160.6,388.5,184.9,389.2,209.7L389.2,209.7z M459.5,132.6c0,42-0.7,38-17.7,38h-1.9
		c-5.4,0-10.9,1.4-16.5,1.4c-2.6,0-3.3-2.6-3.3-4.7c0-14.4,0.7-28.1,0.7-41.5V117c0-27.3-0.9-58,16.5-58c3.8,0,8,0.9,11.5,2.1
		c9.2,3.1,10.4,37.3,10.4,52.6C459.3,120.1,458.6,128.8,459.5,132.6L459.5,132.6z"/>
	<g>
		<defs>
			<rect id="SVGID_1_" y="7.6" width="35.7" height="11"/>
		</defs>
		<clipPath id="SVGID_2_">
			<use xlink:href="#SVGID_1_"  style="overflow:visible;"/>
		</clipPath>
		<g style="clip-path:url(#SVGID_2_);">
		</g>
	</g>
</g>
</svg>
