<?xml version="1.0" encoding="utf-8"?>
<!-- Generator: Adobe Illustrator 23.0.2, SVG Export Plug-In . SVG Version: 6.00 Build 0)  -->
<svg version="1.1" id="Camada_1" xmlns="http://www.w3.org/2000/svg" xmlns:xlink="http://www.w3.org/1999/xlink" x="0px" y="0px"
	 viewBox="0 0 566 193" style="enable-background:new 0 0 566 193;" xml:space="preserve">
<style type="text/css">
	.st0{fill-rule:evenodd;clip-rule:evenodd;fill:#FFFFFF;}
	.st1{fill:#FF0000;}
	.st2{fill:#FF8000;}
	.st3{fill:#FFFF00;}
	.st4{fill:#175FAD;}
</style>
<g>
	<path class="st0" d="M514,168l7-15l34,5l-15-26l20-3l-16-21l9-24l-16-5l6-38l-32,19l-9-39l-58,72l18,63l27,19
		C489,175,511,171,514,168z"/>
	<g>
		<path class="st0" d="M372,19c0,13.3-10.1,24-22.5,24S316,64.3,316,51s20.6-48,33-48S372,5.7,372,19z"/>
		<path id="path4" class="st0" d="M94.1,149.8c-10.9,1.8-23.6-7.4-25.7-18.3c-1.8-9.9-3.9-19.4-6.7-28.9c-5.6,7.4-8.8,13.7-12,22.9
			c-3.9,11.3-11.3,20.8-23.6,22.9c-4.6,0.7-9.5,0.4-14.1-0.4l-11.6-1.8l3.2-11.3C15.3,95.6,29.4,53.7,49.1,17.8
			C53.3,9.7,62.5,3,72,6.9c9.2,3.5,10.6,13.7,9.2,22.2c-0.4,1.4-0.4,2.5-0.7,3.9c12.3-10.6,25.7-20.1,40.5-26.8
			c7.4-3.2,15.8-2.8,21.1,3.9c6,7.4,4.2,18.7-2.8,24.3c-3.2,2.8-6.3,5.3-9.5,8.1c-3.9,3.5,1.8,5.3,6,2.5c6-3.5,12.7-5.6,18-7
			c12.3-2.8,26.1-2.1,36.6,5.6c0.7-2.1,1.4-4.6,2.1-6.7c2.8-8.4,5.6-16.5,8.4-25l2.5-7h7.4c13.4,0,26.8,0.7,40.1,0.7
			c16.5-0.4,39.4,2.1,43,21.8c0.7,3.9,1.1,7,0.7,10.6c3.9-0.7,8.4-0.4,12.3,2.1c12.2,6,25.3-21,24.2-14c-1.4,7-7.8,19.7-6,13
			c2.5-5.6,0.8,9.1,4.3,5.6c6.3-6,15.5-9.9,23.6-4.6c0.4,0.4,0.7,0.4,1.1,0.7c2.8-6,5.6-11.6,8.8-17.3c6-10.9,17.3-20.8,30.6-16.2
			c10.9,3.9,14.8,15.5,14.1,26.1c-0.4,6-0.7,11.6-1.1,17.6c6.3-10.2,12.7-20.8,19-31.3c2.1-3.5,4.9-6.3,8.1-8.8
			c12.7-9.2,27.5-8.1,33.8,1.8c7.4-8.4,21.1-10.2,29.6-2.5c5.6,5.3,6.7,12.7,4.6,19.7c-4.6,14.8-9.9,30.3-15.8,44.7
			c4.6,1.1,10.2,3.5,15.5,6.7c3.2-3.5-10.1,8.8-5.1,8.8c10.2,0.4,6,2.6,13,10c3.5,3.5-6.3,2.1-7,7c-1.1,13,5.2,5.1-5,10
			c-8.8,4.6,10.2,11.5,1,15c-2.1,0.7-0.7,16.4-2.8,16.4c2.5,3.5,3.9,7.7,3.9,12.3c0,17.3-14.1,31-31,31H107.2
			c-12,0-21.8-9.9-21.8-21.8C85.3,163.2,88.5,155.5,94.1,149.8L94.1,149.8z"/>
	</g>
</g>
<g>
	<path id="path3508" class="st1" d="M456.5,60.4l33.3,25.5l6.8-24.1l9.6,24.5l26.5-22.9l-14.4,29.7l22.7-0.8l-14.8,18.6l19.8,12.8
		l-23.5,0.4l20.8,24.9l-29.7-13.8l-3.2,26.7l-14.6-21.6l-20.4,27.7l2-34.7l-27.7,5.6l17.4-22.7L453,93.1l19.8,3.8L456.5,60.4z"/>
	<path id="path3512" class="st2" d="M467.2,73.8l25,19.2l5.1-18.1l7.2,18.4L524.4,76l-10.8,22.3l17.1-0.6l-11.1,13.9l14.8,9.6
		l-17.7,0.3l15.6,18.7L510,130l-2.4,20.1l-10.9-16.2l-15.3,20.8l1.5-26.1l-20.8,4.2l13-17.1l-10.6-17.4l14.8,2.8L467.2,73.8
		L467.2,73.8z"/>
	<path id="path3514" class="st3" d="M477.9,87.6L494,100l3.3-11.6l4.6,11.8l12.8-11.1l-6.9,14.3l11-0.4l-7.1,8.9l9.5,6.2l-11.4,0.2
		l10,12l-14.3-6.6l-1.5,12.9l-7-10.4l-9.8,13.4l1-16.7l-13.4,2.7l8.4-11l-6.8-11.2l9.5,1.8L477.9,87.6L477.9,87.6z"/>
	<path id="path3516" d="M502.4,112.8c0,2.8-2.2,5-5,5s-5-2.2-5-5c0-2.8,2.2-5,5-5S502.4,110,502.4,112.8L502.4,112.8z"/>
</g>
<g transform="translate(0.000000,1046.000000) scale(0.100000,-0.100000)">
</g>
<g>
	<path class="st4" d="M184.7,49.7c-18.3-16.2-57.4,1.1-58.1,13.7c-1.8,6.3,14.4,11.3,16.5,6.3c5.3-6,11.3-9.9,18.7-6
		c6.7,2.8,3.2,13-3.5,15.8c-15.8,3.2-28.2,5.3-38,12c-16.9,13-16.5,23.2-14.1,35.6c3.2,14.4,29.9,10.6,39.1,2.5
		c2.1,3.2,4.6,5.3,7.7,5.3h10.2c3.5,0,5.3-1.4,5.3-4.2C168.1,103.2,197.4,64.2,184.7,49.7z M154.4,111.3c-7.7,8.4-18.7,9.9-20.8,4.6
		c-1.1-4.9-1.8-8.4,7.7-15.8c5.3-3.5,13.7-6.7,16.9-5.6C162.9,96.6,162.2,102.9,154.4,111.3z"/>
	<path class="st4" d="M131.2,22.6c5.3-4.9,2.8-14.8-7.4-10.9C107.9,19.8,92.1,30,73.8,48c-7.7,7.4-12,3.5-10.2-2.1
		c2.8-7.4,4.9-15.1,6.3-22.9c2.8-13.4-7.4-14.1-12.7-4.2c-18.3,31.7-32,72.9-44.4,115.1c9.9,1.4,19,1.1,26.8-15.5
		c3.9-14.1,9.2-20.4,14.8-27.5c6.7-9.2,13-7.4,15.5,1.4c3.5,10.9,5.6,22.5,8.1,33.8c1.1,7.4,16.5,17.6,20.4,0.4
		c1.1-10.2,0-20.8-1.8-31C88.9,59.6,108.3,40.2,131.2,22.6z"/>
	<path class="st4" d="M432.9,21.6c-9.9,16.2-19.7,32-29.6,48.2c-3.5,4.9-10.2,6-9.9-1.4c1.1-13,1.8-26.1,2.5-39.1
		c1.4-18.7-15.5-23.2-25-4.6c-19.7,34.2-32,72.5-44.7,111.3c10.6,1.8,21.8-4.9,37.7-52.5c5.3-14.4,8.4-12,7.4,1.1
		c-1.1,12.3-2.1,24.3-2.8,36.3c-0.4,19.4,11.3,20.1,22.9,2.5c9.9-14.8,15.8-27.8,23.6-41.9c6.3-12,13-17.3,10.6-7
		c-4.6,16.9-9.2,34.2-13.7,51.4c-1.8,11.3,10.9,7.7,14.1-2.1c14.8-31.7,26.1-64.4,32-98.9C463.5,5,439.9,9.9,432.9,21.6z"/>
	<path class="st4" d="M472.7,18c-8.8,15.5-16.9,44.7-24.6,80.3h0c-0.4,5.6,4.6,7.7,10.9-0.7c12-20.8,22.2-46.1,31.3-73.9
		C494.2,10.6,477.3,8.9,472.7,18z"/>
	<path class="st4" d="M265.4,98.1l0.3-18.5c-0.7-4.2-3.5-7.7-7-10.6c15.1-10.6,26.1-23.2,23.2-44.4c-2.1-10.2-14.1-13.7-32.4-13
		c-12.7,0-26.4-0.4-39.8-0.7c-12.7,36.6-25,76-29.9,108.1c-1.4,15.5,3.5,17.3,13.4,17.3c9.9,0,19.7-0.4,29.6-0.4
		c13-1.1,25.7-6.3,36.3-19c0.6-0.7,1.6-2.8,2.7-5c0.6-2.6,1.9-5,2.9-7.5C264.8,102.3,265.1,100.2,265.4,98.1z M229.4,54.3
		c0-8.1,3.9-21.5,7.7-21.5h0c7.4,0,14.8-0.4,22.5-0.4c10.6,0,12.7,4.6,8.8,13.7c-5.3,9.2-12.3,14.4-28.5,14.1
		C235,59.9,228.7,61,229.4,54.3z M232.9,114.2c-4.9,0.4-11.3,0-16.5,0c-3.2-0.4-4.9-2.5-4.9-7c2.1-13.7,4.6-22.5,7.7-25.7h25.7
		C267.1,83.2,256.2,113.5,232.9,114.2z"/>
	<path class="st4" d="M440.3,112.7c-4.9,4.9-10.2,12.7-8.4,19c2.8,3.9,7.4,1.8,11.6,0.7c6.3-2.5,11.3-6.7,11.6-14.1
		C457.9,112.4,447,106.4,440.3,112.7z"/>
	<path class="st4" d="M347.7,14.8c0.1,2.8,0.1,5.2,0.1,5.2c-0.1,0-0.1,0-0.1-0.1c0-0.1,0-0.1-0.1,0c-0.1,0.1-3.9-1.1-9.7-3.1
		c-0.2-0.1-0.3-0.1-0.2,0c0,0,1.3,1.6,2.8,3.5c1.5,1.8,2.8,3.5,2.9,3.6c0.2,0.3,0.2,0.3-0.2,0.2c-0.6-0.1-2.4-0.1-3.5,0.1
		c-6.6,1.1-14.5,8.1-23.7,21.2l-1.2,1.7l-1-0.3c-3.1-1-6.3-1.3-7.7-0.7c-0.7,0.3-1.2,0.8-1.3,1.4c-0.1,0.3-0.2,0.6-0.4,0.8
		c-0.3,0.3-0.5,1.1-0.4,1.5l0.1,0.2l-0.7-0.1c-4.9-0.8-11.1-0.6-16.2,0.5c-7.5,1.7-13.9,4.8-19.5,9.6c-4.3,3.7-7.7,7.8-10.3,12.6
		c-6.5,12-6.9,26.2-1.2,38.4c4.6,9.8,12.7,17.5,22.8,21.7c6.3,2.6,13.6,3.7,20.4,3.1c3-0.2,4.5-0.5,7.6-1.3c3.5-0.9,5.6-1.7,8.5-3.1
		c11.4-5.6,19.7-15.6,23.1-27.8c1.8-6.5,2-13.6,0.5-20.2c-1.4-6.2-3.7-11.4-7.4-16.4c-2.1-2.9-5.8-6.7-8.4-8.5
		c-0.3-0.2-0.5-0.4-0.5-0.4c0,0,0.1-0.2,0.3-0.3c0.4-0.3,0.7-0.7,0.7-1.1c0-0.2,0.2-0.4,0.3-0.6c0.3-0.4,0.5-1.1,0.4-1.7
		c-0.3-1.3-2-3-4.5-4.6c-0.9-0.6-1-0.7-0.9-0.8c0.3-0.5,2.2-3,3.2-4.4c5.6-7.4,10.7-12.4,14.9-14.5l0.9-0.4l3.2,0.9l3.2,0.9
		l-2.1,2.8c-1.2,1.5-2.6,3.4-3.2,4.2c-0.6,0.8-1.1,1.4-1,1.5c0,0,3.9-1.4,8.9-3.2c0.5-0.2,1-0.3,1-0.3c0.1,0,0.1,1,0,5.9
		c0,2.5-0.1,4.5,0,4.5c0,0,0.2-0.2,0.4-0.6c0.2-0.3,1.6-2.3,3-4.3l2.6-3.8l2.9,4c1.6,2.2,3,4.2,3.1,4.3c0.2,0.3,0.2-0.3,0-5
		c-0.1-2.9-0.1-5.3-0.1-5.3c0-0.1,2.2,0.6,7,2.2c1.7,0.6,3.1,1,3.1,1c0,0-0.6-0.8-1.4-1.8c-0.8-1-2.2-2.8-3.3-4.1l-1.8-2.3l1.1-0.4
		c0.6-0.2,2.9-0.9,5.1-1.6l4-1.2l-5.2-1.4c-5.1-1.4-5.2-1.4-5-1.7c3.5-4.6,6.3-8.2,6.1-8.2c-0.1,0-7.5,2.7-9.5,3.4
		c-0.2,0.1-0.4,0.1-0.4,0.1c0-0.1,0-2.6,0.1-6.4c0-2.1,0.1-3.9,0.1-4c0-0.1-0.2,0.1-3.3,4.6l-2.8,4l-2.5-3.4c-1.4-1.9-2.7-3.8-3-4.2
		c-0.3-0.4-0.6-0.8-0.6-0.8C347.6,9.6,347.6,12,347.7,14.8z"/>
</g>
<g>
	<path class="st4" d="M110.5,158.4h3.4l-0.4,19.8h0.9l9.3-19.3h4l0.2,19.3h0.9l8.9-19.8h3.5l-10.3,22.7h-6l-0.1-17.9l-8.5,17.9h-5.9
		L110.5,158.4z"/>
	<path class="st4" d="M143.7,158.4h3.4l-0.4,19.8h0.9l9.3-19.3h4l0.2,19.3h0.9l8.9-19.8h3.5L164,181.1h-6l-0.1-17.9l-8.5,17.9h-5.9
		L143.7,158.4z"/>
	<path class="st4" d="M177,158.4h3.4l-0.4,19.8h0.9l9.3-19.3h4l0.2,19.3h0.9l8.9-19.8h3.5l-10.3,22.7h-6l-0.1-17.9l-8.5,17.9h-5.9
		L177,158.4z"/>
	<path class="st4" d="M204.3,181.1l1.2-5h3.5l-1.2,5H204.3z"/>
	<path class="st4" d="M218.4,181.1h-6.1l7.3-31.8h6.1l-4.1,17.7l1.5-0.3l5.8-8.2h6.7l-7.9,10.9l3,11.8h-6.2l-2.2-9.4l-1.8,0.3
		L218.4,181.1z"/>
	<path class="st4" d="M240.7,181.7c-2.2,0-3.8-0.8-4.9-2.3c-1-1.5-1.5-3.5-1.5-6c0-3.5,0.9-6.8,2.6-10c0.9-1.6,2.1-2.9,3.6-4
		s3.3-1.5,5.3-1.5c2.1,0,5.2,0.4,9.3,1.1l2.1,0.4l-3.4,14.7l-1.2,7l-6,0.2c0.3-1.8,0.5-3,0.6-3.5c-1.2,1.7-2.7,2.8-4.4,3.5
		C242.1,181.5,241.4,181.7,240.7,181.7z M246.1,163.1c-1.2,0-2.2,0.6-3,1.8c-1.7,2.2-2.5,5.1-2.5,8.6c0,1.1,0.2,1.8,0.5,2.3
		c0.3,0.5,0.9,0.8,1.6,0.8c0.7,0,1.5-0.3,2.4-1c0.9-0.7,1.6-1.3,2.3-2l0.9-1l2.1-8.8C248.3,163.3,246.9,163.1,246.1,163.1z"/>
	<path class="st4" d="M273.4,157.9c2.5,0,4.2,0.7,5.3,2.1c1,1.4,1.6,3.2,1.6,5.3c0,4.8-1.1,8.7-3.2,11.8c-2.1,3.1-5,4.6-8.6,4.6
		c-1.5,0-3.1-0.1-5-0.4s-3.3-0.5-4.5-0.8l-1.7-0.4l7.1-30.8h6.1l-2.5,10.9c0.7-0.6,1.6-1.1,2.6-1.6
		C271.7,158.1,272.6,157.9,273.4,157.9z M264.4,176c1.3,0.3,2.6,0.5,3.7,0.5c1.1,0,2.1-0.4,2.9-1.1c0.8-0.8,1.4-1.7,1.8-2.9
		c0.8-2.3,1.2-4.5,1.2-6.5s-0.8-3-2.4-3c-0.6,0-1.3,0.2-2.1,0.6c-0.8,0.4-1.4,0.8-1.9,1.2l-0.8,0.5L264.4,176z"/>
	<path class="st4" d="M293.8,157.9c6,0,9,2.9,9,8.6c0,2.5-0.4,4.8-1.2,7c-0.8,2.2-2.1,4.2-3.9,5.8c-1.8,1.6-3.9,2.4-6.3,2.4
		c-6,0-9-2.9-9-8.6c0-2.4,0.4-4.8,1.3-7c0.9-2.3,2.2-4.2,4-5.8C289.4,158.7,291.5,157.9,293.8,157.9z M291.3,176.5c1.6,0,3-1,4-3.1
		c1-2.1,1.5-4.4,1.5-7c0-2.2-1-3.3-2.9-3.3c-1.6,0-3,1-4,3.1c-1,2.1-1.5,4.4-1.5,7C288.3,175.4,289.3,176.5,291.3,176.5z"/>
	<path class="st4" d="M318.6,170.5c0.5-2.3,0.8-3.8,0.8-4.7c0-0.9-0.1-1.5-0.4-2c-0.3-0.4-0.7-0.6-1.3-0.6c-1,0-2.3,0.7-3.8,2
		l-0.7,0.7l-3.5,15.3h-6.1l5.2-22.7h5.8l-0.2,2.2c1.2-1.2,2.5-2,4-2.5c0.6-0.2,1.4-0.3,2.3-0.3c0.9,0,1.7,0.3,2.5,0.8
		c0.8,0.5,1.3,1.1,1.5,1.6l0.3,0.8c0.3-0.2,0.6-0.5,1.1-0.9c0.5-0.4,1.3-0.8,2.6-1.4s2.4-0.9,3.4-0.9c3.6,0,5.5,2.1,5.5,6.4
		c0,1.4-0.3,3.3-0.9,5.7l-2.5,11.1h-6.1l2.5-10.7c0.5-2.3,0.8-3.8,0.8-4.7c0-0.8-0.1-1.5-0.4-2c-0.2-0.5-0.6-0.7-1.2-0.7
		c-0.6,0-1.2,0.2-2,0.7c-0.7,0.4-1.4,0.9-1.8,1.3l-0.7,0.6c-0.2,1.8-0.4,3.2-0.7,4.2l-2.5,11.1h-6.1L318.6,170.5z"/>
	<path class="st4" d="M338.6,181.1l1.2-5h3.5l-1.2,5H338.6z"/>
	<path class="st4" d="M359.7,158c1.4,0,3,0.2,4.9,0.6l0.8,0.2l-0.9,2.6c-2-0.4-3.6-0.5-4.9-0.5c-1.8,0-3.4,0.7-4.7,2
		c-2.5,2.5-3.7,6.2-3.7,11.1c0,1.5,0.4,2.7,1.1,3.4c0.7,0.8,1.9,1.2,3.6,1.2c1.2,0,2.6-0.2,4.2-0.5l0.9-0.2l-0.2,2.7
		c-2.1,0.6-4.2,1-6.3,1s-3.8-0.6-5-1.8s-1.8-2.9-1.8-5.1c0-6.5,1.8-11.3,5.3-14.3C354.8,158.8,357.1,158,359.7,158z"/>
	<path class="st4" d="M377.2,158c5.2,0,7.9,2.6,7.9,7.7c0,2.8-0.4,5.4-1.3,7.8c-0.9,2.4-2.2,4.3-4,5.8s-3.8,2.3-6.2,2.3
		c-5.2,0-7.8-2.5-7.8-7.5c0-4.4,1.1-8.2,3.3-11.4S373.9,158,377.2,158z M373.5,178.6c2.4,0,4.4-1.3,5.9-3.8c1.5-2.6,2.3-5.6,2.3-9.2
		c0-1.5-0.4-2.6-1.1-3.5c-0.7-0.8-1.9-1.3-3.3-1.3c-2.4,0-4.3,1.3-5.8,4c-1.5,2.7-2.3,5.8-2.3,9.3
		C369.1,177.2,370.6,178.6,373.5,178.6z"/>
	<path class="st4" d="M403.9,164.4c0-2.3-1-3.4-3.1-3.4c-0.9,0-1.9,0.4-3.1,1.3c-1.2,0.8-2.1,1.7-2.8,2.5l-1,1.3l-3.5,15.1H387
		l5.2-22.7h3.3l-0.8,4c0.7-0.9,1.5-1.7,2.5-2.4c1.8-1.3,3.5-2,5-2c1.7,0,2.9,0.5,3.7,1.4c0.7,0.8,1.1,1.7,1.3,2.6
		c0.3-0.3,0.7-0.7,1.2-1.1c0.5-0.5,1.4-1.1,2.8-1.8c1.3-0.7,2.6-1.1,3.7-1.1c1.8,0,3.1,0.5,4,1.5c0.9,1,1.3,2.3,1.3,3.8
		c0,1.5-0.3,3.6-0.9,6.4l-2.6,11.5h-3.4l2.6-11.3c0.6-2.3,0.9-4.1,0.9-5.4c0-2.3-1-3.5-3-3.5c-0.8,0-1.8,0.3-2.8,1
		c-1,0.7-1.9,1.4-2.5,2.1l-1,1c-0.1,1.4-0.3,3-0.8,4.6l-2.6,11.5h-3.4l2.6-11.3C403.7,167.5,403.9,165.7,403.9,164.4z"/>
	<path class="st4" d="M421.4,181.1l1.2-5h3.5l-1.2,5H421.4z"/>
	<path class="st4" d="M444.7,158c2.3,0,3.8,0.6,4.7,1.8c0.9,1.2,1.3,2.9,1.3,5.1c0,2.9-0.6,5.7-1.7,8.6c-1.3,3.3-3.2,5.6-5.5,7
		c-1.3,0.8-2.7,1.1-4,1.1c-2.5,0-5.2-0.3-8-0.8l-1.5-0.3l7.4-32h3.4l-3,12.9c1.5-1.5,3.1-2.5,4.8-3.1
		C443.4,158.1,444.1,158,444.7,158z M434,178.1c2.1,0.4,3.9,0.6,5.3,0.6c1.4,0,2.7-0.5,3.8-1.6c1.1-1.1,2-2.4,2.5-3.9
		c1.2-3.2,1.7-5.6,1.7-7.4c0-1.8-0.2-3-0.7-3.8c-0.5-0.7-1.4-1.1-2.8-1.1c-0.8,0-1.8,0.3-3,1c-1.1,0.7-2,1.3-2.7,2l-1,1L434,178.1z"
		/>
	<path class="st4" d="M452.6,181.1l5.3-22.7h3.4l-0.8,3.4c2.8-2,5.6-3.3,8.2-3.9l-0.9,3.5c-1.6,0.4-3.8,1.3-6.6,2.7l-1.4,0.7
		l-3.8,16.3H452.6z"/>
</g>
</svg>
