<?xml version="1.0" encoding="utf-8"?>
<!-- Generator: Adobe Illustrator 23.0.2, SVG Export Plug-In . SVG Version: 6.00 Build 0)  -->
<svg version="1.1" id="Capa_1" xmlns="http://www.w3.org/2000/svg" xmlns:xlink="http://www.w3.org/1999/xlink" x="0px" y="0px"
	 viewBox="0 0 512 512" style="enable-background:new 0 0 512 512;" xml:space="preserve">
<style type="text/css">
	.st0{fill:#6E61C6;}
	.st1{fill:url(#SVGID_1_);}
	.st2{fill:url(#SVGID_2_);}
	.st3{fill:url(#SVGID_3_);}
	.st4{fill:url(#SVGID_4_);}
	.st5{fill:url(#SVGID_5_);}
	.st6{fill:#D5ECF3;}
	.st7{fill:url(#SVGID_6_);}
	.st8{fill:url(#SVGID_7_);}
	.st9{fill:url(#SVGID_8_);}
	.st10{fill-rule:evenodd;clip-rule:evenodd;fill:url(#SVGID_9_);}
</style>
<path class="st0" d="M29.3,420v1c0,26.2,17.4,48.6,41.1,52.8l0,0c79.8,14.1,161.2,14.1,241,0l0,0c23.7-4.2,41.1-26.6,41.1-52.8v-1
	H29.3z"/>
<linearGradient id="SVGID_1_" gradientUnits="userSpaceOnUse" x1="450.2746" y1="748.1108" x2="513.8646" y2="748.1108" gradientTransform="matrix(1.0039 0 0 1.0039 1.1399 -486.3905)">
	<stop  offset="0" style="stop-color:#FFF2E8"/>
	<stop  offset="1" style="stop-color:#E7D2B9"/>
</linearGradient>
<path class="st1" d="M415.1,386.3h-85V142.9h85c53.4,0,96.9,43.5,96.9,96.9v49.6C512,342.9,468.5,386.3,415.1,386.3z M374.8,341.7
	h40.3c28.8,0,52.3-23.5,52.3-52.3v-49.6c0-28.8-23.5-52.3-52.3-52.3h-40.3L374.8,341.7L374.8,341.7z"/>
<linearGradient id="SVGID_2_" gradientUnits="userSpaceOnUse" x1="403.0941" y1="676.553" x2="357.0741" y2="630.543" gradientTransform="matrix(1.0039 0 0 1.0039 1.1399 -486.3905)">
	<stop  offset="0" style="stop-color:#FFF2E8;stop-opacity:0"/>
	<stop  offset="1" style="stop-color:#DDA88E"/>
</linearGradient>
<path class="st2" d="M415.1,187.6c4.4,0,8.8,0.6,12.9,1.6l-46.2-46.2h-7v44.6L415.1,187.6L415.1,187.6z"/>
<linearGradient id="SVGID_3_" gradientUnits="userSpaceOnUse" x1="410.6421" y1="839.0225" x2="410.6421" y2="886.3125" gradientTransform="matrix(1.0039 0 0 1.0039 1.1399 -486.3905)">
	<stop  offset="0" style="stop-color:#F9C6A0;stop-opacity:0"/>
	<stop  offset="1" style="stop-color:#EF9B7F"/>
</linearGradient>
<path class="st3" d="M496.6,341.7h-81.5h-40.3h-44.6v44.6h85C449.3,386.3,479.4,368.5,496.6,341.7z"/>
<linearGradient id="SVGID_4_" gradientUnits="userSpaceOnUse" x1="399.9895" y1="871.3575" x2="355.0895" y2="826.4576" gradientTransform="matrix(1.0039 0 0 1.0039 1.1399 -486.3905)">
	<stop  offset="0" style="stop-color:#FFF2E8;stop-opacity:0"/>
	<stop  offset="1" style="stop-color:#DDA88E"/>
</linearGradient>
<path class="st4" d="M415.1,386.3c3.7,0,7.3-0.2,10.8-0.6l-44-44h-7.2v44.6H415.1z"/>
<linearGradient id="SVGID_5_" gradientUnits="userSpaceOnUse" x1="381.1769" y1="657.2321" x2="-70.2331" y2="831.242" gradientTransform="matrix(1.0039 0 0 1.0039 1.1399 -486.3905)">
	<stop  offset="0" style="stop-color:#FFF2E8"/>
	<stop  offset="1" style="stop-color:#E7D2B9"/>
</linearGradient>
<path class="st5" d="M381.8,67.2V397c0,28.3-20.6,52.5-48.5,57l0,0c-94.3,15.3-190.4,15.3-284.7,0l0,0C20.6,449.5,0,425.3,0,397
	V67.2c0-18.1,85.5-39.5,190.9-39.5S381.8,49.1,381.8,67.2z"/>
<path class="st6" d="M381.8,67.2c0,18.1-85.5,26-190.9,26S0,85.3,0,67.2c0-18.1,85.5-39.5,190.9-39.5S381.8,49.1,381.8,67.2z"/>
<linearGradient id="SVGID_6_" gradientUnits="userSpaceOnUse" x1="287.5548" y1="715.5504" x2="424.9048" y2="669.5403" gradientTransform="matrix(1.0039 0 0 1.0039 1.1399 -486.3905)">
	<stop  offset="0" style="stop-color:#FFF2E8;stop-opacity:0"/>
	<stop  offset="1" style="stop-color:#DDA88E"/>
</linearGradient>
<path class="st7" d="M333.2,454L333.2,454c28-4.5,48.5-28.7,48.5-57V67.2c0-18.1-85.5-39.5-190.9-39.5v437.8
	C238.5,465.5,286.1,461.6,333.2,454z"/>
<radialGradient id="SVGID_7_" cx="191.4238" cy="1278.3788" r="459.43" gradientTransform="matrix(1.0039 -4.216471e-04 1.405490e-04 0.3327 1.1212 -399.3055)" gradientUnits="userSpaceOnUse">
	<stop  offset="0" style="stop-color:#FFF2E8"/>
	<stop  offset="0.314" style="stop-color:#FEF1E6"/>
	<stop  offset="0.427" style="stop-color:#FBECDF"/>
	<stop  offset="0.508" style="stop-color:#F5E4D4"/>
	<stop  offset="0.572" style="stop-color:#ECD9C3"/>
	<stop  offset="0.6" style="stop-color:#E7D2B9"/>
	<stop  offset="0.795" style="stop-color:#F2E0CE;stop-opacity:0.512"/>
	<stop  offset="1" style="stop-color:#FFF2E8;stop-opacity:0"/>
</radialGradient>
<path class="st8" d="M190.9,27.7C85.5,27.7,0,49.1,0,67.2v99.3c54.7,11.8,120.3,18.7,190.9,18.7s136.2-6.9,190.9-18.7V67.2
	C381.8,49.1,296.3,27.7,190.9,27.7z"/>
<linearGradient id="SVGID_8_" gradientUnits="userSpaceOnUse" x1="188.999" y1="544.2625" x2="188.999" y2="602.8225" gradientTransform="matrix(1.0039 0 0 1.0039 1.1399 -486.3905)">
	<stop  offset="0" style="stop-color:#FF4C4A"/>
	<stop  offset="1" style="stop-color:#FF001C"/>
</linearGradient>
<path class="st9" d="M190.9,93.3c75.2,0,140.2-7.5,171.3-18.3C346.9,59.8,276,48.3,190.9,48.3S34.9,59.8,19.5,74.9
	C50.7,85.8,115.7,93.3,190.9,93.3z"/>
<linearGradient id="SVGID_9_" gradientUnits="userSpaceOnUse" x1="8028.2495" y1="-13222.4336" x2="8028.2495" y2="-13222.4336" gradientTransform="matrix(3.717639e-02 0 0 -3.717639e-02 -233.9652 -214.8575)">
	<stop  offset="0" style="stop-color:#FFFFFF"/>
	<stop  offset="1" style="stop-color:#FFFFFF;stop-opacity:0"/>
</linearGradient>
<path class="st10" d="M64.5,276.7"/>
</svg>
